<svg enable-background="new 0 0 512 512" height="512" viewBox="0 0 64 64" width="512" xmlns="http://www.w3.org/2000/svg"><g fill="#f00"><path d="m60 38h-9v-4a3 3 0 0 0 -3-3h-15v-5h10a3 3 0 0 0 3-3v-18a3 3 0 0 0 -3-3h-22a3 3 0 0 0 -3 3v18a3 3 0 0 0 3 3h10v5h-13a3 3 0 0 0 -3 3v4h-10a3 3 0 0 0 -3 3v18a3 3 0 0 0 3 3h22a3 3 0 0 0 3-3v-18a3 3 0 0 0 -3-3h-10v-4a1 1 0 0 1 1-1h30a1 1 0 0 1 1 1v4h-11a3 3 0 0 0 -3 3v18a3 3 0 0 0 3 3h22a3 3 0 0 0 3-3v-18a3 3 0 0 0 -3-3zm-39-34h22a1 1 0 0 1 1 1v1h-24v-1a1 1 0 0 1 1-1zm-1 19v-15h24v15a1 1 0 0 1 -1 1h-22a1 1 0 0 1 -1-1zm7 37h-22a1 1 0 0 1 -1-1v-15h24v15a1 1 0 0 1 -1 1zm1-19v1h-24v-1a1 1 0 0 1 1-1h22a1 1 0 0 1 1 1zm10-1h22a1 1 0 0 1 1 1v1h-24v-1a1 1 0 0 1 1-1zm22 20h-22a1 1 0 0 1 -1-1v-15h24v15a1 1 0 0 1 -1 1z" xmlns="http://www.w3.org/2000/svg"/><path d="m45.707 48.293a1 1 0 0 0 -1.414 0l-3 3a1 1 0 0 0 0 1.414l3 3a1 1 0 0 0 1.414-1.414l-2.293-2.293 2.293-2.293a1 1 0 0 0 0-1.414z" xmlns="http://www.w3.org/2000/svg"/><path d="m53.707 48.293a1 1 0 0 0 -1.414 1.414l2.293 2.293-2.293 2.293a1 1 0 1 0 1.414 1.414l3-3a1 1 0 0 0 0-1.414z" xmlns="http://www.w3.org/2000/svg"/><path d="m50.243 47.03a1 1 0 0 0 -1.213.727l-2 8a1 1 0 0 0 .727 1.213.976.976 0 0 0 .243.03 1 1 0 0 0 .969-.757l2-8a1 1 0 0 0 -.726-1.213z" xmlns="http://www.w3.org/2000/svg"/><path d="m28.707 12.293a1 1 0 0 0 -1.414 0l-3 3a1 1 0 0 0 0 1.414l3 3a1 1 0 0 0 1.414-1.414l-2.293-2.293 2.293-2.293a1 1 0 0 0 0-1.414z" xmlns="http://www.w3.org/2000/svg"/><path d="m36.707 12.293a1 1 0 0 0 -1.414 1.414l2.293 2.293-2.293 2.293a1 1 0 1 0 1.414 1.414l3-3a1 1 0 0 0 0-1.414z" xmlns="http://www.w3.org/2000/svg"/><path d="m33.243 11.03a1 1 0 0 0 -1.213.727l-2 8a1 1 0 0 0 .727 1.213.976.976 0 0 0 .243.03 1 1 0 0 0 .969-.757l2-8a1 1 0 0 0 -.726-1.213z" xmlns="http://www.w3.org/2000/svg"/><path d="m12.707 48.293a1 1 0 0 0 -1.414 0l-3 3a1 1 0 0 0 0 1.414l3 3a1 1 0 0 0 1.414-1.414l-2.293-2.293 2.293-2.293a1 1 0 0 0 0-1.414z" xmlns="http://www.w3.org/2000/svg"/><path d="m20.707 48.293a1 1 0 0 0 -1.414 1.414l2.293 2.293-2.293 2.293a1 1 0 1 0 1.414 1.414l3-3a1 1 0 0 0 0-1.414z" xmlns="http://www.w3.org/2000/svg"/><path d="m17.243 47.03a1 1 0 0 0 -1.213.727l-2 8a1 1 0 0 0 .727 1.213.976.976 0 0 0 .243.03 1 1 0 0 0 .969-.757l2-8a1 1 0 0 0 -.726-1.213z" xmlns="http://www.w3.org/2000/svg"/></g></svg>