<svg enable-background="new 0 0 512 512" height="512" viewBox="0 0 512 512" width="512" xmlns="http://www.w3.org/2000/svg"><path d="m461.916 430.5h-23.638l-112.387-379.043c-4.443-14.977-13.406-27.832-25.92-37.174-12.516-9.344-27.389-14.283-43.011-14.283-15.61 0-30.481 4.938-43.01 14.283-12.518 9.356-21.477 22.211-25.91 37.175l-42.38 142.92c-1.178 3.971 1.087 8.146 5.058 9.323 3.975 1.178 8.146-1.087 9.323-5.058l4.915-16.574h184.017l22.842 77.037h-229.701l9.397-31.694c1.178-3.971-1.087-8.145-5.059-9.322-3.97-1.177-8.145 1.087-9.322 5.059l-61.478 207.351h-25.568c-22.47 0-40.75 18.281-40.75 40.75s18.281 40.75 40.75 40.75h411.832c22.47 0 40.75-18.281 40.75-40.75s-18.28-40.75-40.75-40.75zm-238.991-404.198c9.912-7.394 21.682-11.302 34.035-11.302 25.006 0 47.438 16.746 54.55 40.722l5.722 19.299h-120.534l5.723-19.3c3.508-11.843 10.601-22.017 20.504-29.419zm-53.522 140.766 22.847-77.048h129.43l22.845 77.048zm-59.027 199.082h207.924c4.143 0 7.5-3.358 7.5-7.5s-3.357-7.5-7.5-7.5h-203.477l22.843-77.044h238.596l22.844 77.044h-50.806c-4.143 0-7.5 3.358-7.5 7.5s3.357 7.5 7.5 7.5h55.253l19.08 64.35h-331.336zm351.54 130.85h-411.832c-14.199 0-25.75-11.552-25.75-25.75s11.552-25.75 25.75-25.75h411.832c14.198 0 25.75 11.552 25.75 25.75s-11.551 25.75-25.75 25.75z" fill="#f00" xmlns="http://www.w3.org/2000/svg"/></svg>