<svg enable-background="new 0 0 512 512" height="512" viewBox="0 0 500 480" width="512" xmlns="http://www.w3.org/2000/svg"><g fill="#f00"><path d="m456 144h-16v-34.382812c0-28.59375-12.808594-55.234376-35.128906-73.097657-16.535156-13.230469-37.304688-20.519531-58.480469-20.519531h-134.710937c-8.800782-9.792969-21.511719-16-35.679688-16h-128c-26.472656 0-48 21.527344-48 48s21.527344 48 48 48h128c14.167969 0 26.878906-6.207031 35.679688-16h134.710937c6.699219 0 13.265625 2.304688 18.496094 6.488281 7.066406 5.65625 11.121093 14.078125 11.121093 23.128907v34.382812h-76.777343c-9.054688 0-17.925781 3.113281-24.992188 8.769531l-22.46875 17.972657c-4.242187 3.394531-9.570312 5.257812-14.992187 5.257812h-52.777344c-10.414062 0-19.214844 6.710938-22.527344 16h-17.472656c-8.824219 0-16 7.175781-16 16h-36.160156l-32-40h-59.839844v192h59.839844l32-40h36.160156c0 8.824219 7.175781 16 16 16h17.472656c2.414063 6.777344 7.75 12.113281 14.527344 14.527344v25.472656c0 13.230469 10.769531 24 24 24h256c13.230469 0 24-10.769531 24-24v-32h-.246094c9.796875-7.296875 16.246094-18.871094 16.246094-32v-128c0-22.054688-17.945312-40-40-40zm-360 96v-16h32v16zm32 16v16h-32v-16zm-112-72h32v160h-32zm64 125.191406-16 20v-130.382812l16 20zm16-5.191406v-16h32v16zm80-224h-128c-17.648438 0-32-14.351562-32-32s14.351562-32 32-32h128c17.648438 0 32 14.351562 32 32s-14.351562 32-32 32zm198.871094-6.007812c-8.046875-6.449219-18.167969-9.992188-28.480469-9.992188h-125.191406c1.785156-5.015625 2.800781-10.382812 2.800781-16s-1.023438-10.984375-2.800781-16h125.191406c17.5625 0 34.785156 6.039062 48.488281 17.007812 18.503906 14.816407 29.121094 36.902344 29.121094 60.609376v34.382812h-32v-34.382812c0-13.9375-6.238281-26.921876-17.128906-35.625zm-198.871094 126.007812c0-4.40625 3.585938-8 8-8h52.777344c1.085937 0 2.152344-.183594 3.222656-.273438v144.273438h-56c-4.414062 0-8-3.59375-8-8zm-32 8h16v112h-16zm320 168c0 4.40625-3.585938 8-8 8h-256c-4.414062 0-8-3.59375-8-8v-24h264c2.734375 0 5.414062-.28125 8-.808594zm16-64c0 13.230469-10.769531 24-24 24h-200v-148.945312c2.023438-1.101563 3.953125-2.375 5.769531-3.824219l22.46875-17.972657c4.234375-3.394531 9.5625-5.257812 14.984375-5.257812h156.777344c13.230469 0 24 10.769531 24 24zm0 0"/><path d="m336 320h128v-112h-128zm16-96h96v80h-96zm0 0"/><path d="m448 176h16v16h-16zm0 0"/><path d="m336 176h96v16h-96zm0 0"/><path d="m192 208h32v16h-32zm0 0"/><path d="m192 240h32v16h-32zm0 0"/><path d="m192 272h32v16h-32zm0 0"/><path d="m192 304h32v16h-32zm0 0"/><path d="m272 320h48v-128h-48zm16-112h16v96h-16zm0 0"/></g></svg>